# xmcd
#
# Track frame offsets:
#	150
#	17805
#	31935
#	45362
#	62544
#	79287
#	95177
#	112830
#	126962
#	140388
#	157570
#	174318
#
# Disc length: 2536 seconds
#
# Revision: 0
# Processed by: cddbd v1.5.2PL0 Copyright (c) Steve Scherf et al.
# Submitted via: audiograbber 1.83.01
#
DISCID=8b09e60c
DTITLE=Various Artist - CB20067
DYEAR=1900
DGENRE=Country
TTITLE0=Faith Hill - Love Ain't Like That (Vocal)
TTITLE1=Patti Loveless - Can't Get Enough (Vocal)
TTITLE2=Deana Carter - You Still Shake Me (Vocal)
TTITLE3=Claudia Church - What's The Matter With You Baby (Vocal)
TTITLE4=Lila McCann - With You (Vocal)
TTITLE5=Shedaisy - Little Goodbyes (Vocal)
TTITLE6=Faith Hill - Love Ain't Like That
TTITLE7=Patti Loveless - Can't Get Enough
TTITLE8=Deana Carter - You Still Shake Me
TTITLE9=Claudia Church - What's The Matter With You Baby
TTITLE10=Lila McCann - With You
TTITLE11=Shedaisy - Little Goodbyes
EXTD=
EXTT0=
EXTT1=
EXTT2=
EXTT3=
EXTT4=
EXTT5=
EXTT6=
EXTT7=
EXTT8=
EXTT9=
EXTT10=
EXTT11=
PLAYORDER=
